<svg xmlns="http://www.w3.org/2000/svg" viewBox="0 0 120 54" role="img" aria-labelledby="title desc">
  <title id="title">Wedding bow tie</title>
  <desc id="desc">A small elegant bow tie with ivory and olive details.</desc>
  <path fill="#151712" stroke="#fbfaf7" stroke-width="3" stroke-linejoin="round" d="M57 27 20 8C12 4 5 8 7 18l4 17c2 9 10 12 18 7l28-15ZM63 27l37-19c8-4 15 0 13 10l-4 17c-2 9-10 12-18 7L63 27Z"/>
  <rect x="53" y="15" width="14" height="24" rx="4" fill="#fbfaf7" stroke="#151712" stroke-width="3"/>
  <path fill="none" stroke="#fbfaf7" stroke-width="2" d="M17 15c8 5 16 9 26 12M103 15c-8 5-16 9-26 12" opacity=".8"/>
</svg>
